<svg xmlns="http://www.w3.org/2000/svg" width="48" height="48" fill="none" viewBox="0 0 48 48">
  <path fill="#D4D8DD" d="M22.954 33.5a17.4 17.4 0 0 0 1.542-.068 7.866 7.866 0 0 1-.112-.147c-1.448-1.354-2.299-3.004-2.299-4.785 0-4.602 5.68-8.333 12.686-8.333.594 0 1.178.026 1.75.078C35.043 15.19 29.53 11 22.953 11 15.248 11 9 16.037 9 22.25c0 3.95 2.524 7.423 6.343 9.43V36l4.656-2.753c.953.166 1.942.253 2.956.253Z"/>
  <path fill="#D4D8DD" d="M36.124 32.772C37.871 31.748 39 30.117 39 28.281c0-3.1-3.218-5.614-7.189-5.614-3.97 0-7.188 2.513-7.188 5.614 0 3.1 3.218 5.614 7.188 5.614L36.124 36v-3.228Z"/>
</svg>
